<svg width="1077" height="544" viewBox="0 0 1077 544" fill="none" xmlns="http://www.w3.org/2000/svg">
<path d="M811.298 414.656C810.438 386.829 819.995 371.602 816.17 339.171C816.091 338.639 816.055 338.108 815.977 337.532C814.616 326.588 816.073 315.867 817.573 305.192C823.426 263.505 818.502 270.586 804.856 263.902C796.022 259.554 786.541 256.919 777.661 252.702C765.193 246.79 752.599 240.477 741.088 232.679C730.057 225.199 721.682 219.753 706.151 215.027C693.868 211.284 682.806 205.616 670.195 203.017C668.449 188.706 662.511 174.59 651.503 165.695C651.475 164.722 651.449 163.66 651.453 163.439C650.532 155.199 648.882 153.624 647.507 151.479C647.335 151.211 647.162 150.987 646.9 150.85C646.33 150.663 645.434 151.488 644.896 152.054C644.955 148.474 640.404 141.102 639.783 141.312C639.156 141.921 638.575 142.398 638.08 142.964C636.474 136.172 630.173 127.931 629.994 128.105C629.76 128.897 629.483 129.688 629.251 130.392C628.584 128.037 626.922 124.604 622.983 120.161C622.344 121.477 621.977 122.311 621.606 123.41C620.443 119.102 616.98 115.241 613.632 112.443C615.222 69.8894 645.001 34.4395 681.117 15.6769C687.566 12.3359 692.239 9.76107 686.63 2.37145C685.378 0.758696 683.369 -0.380346 681.464 0.11839C680.136 0.449897 679.105 1.44963 678.119 2.45011C637.001 43.5469 610.048 57.5547 605.896 108.29C600.458 103.866 597.651 105.632 597.465 108.857C594.215 102.789 584.929 96.3989 584.65 97.2786C584.622 99.0025 584.601 100.24 584.629 101.213C582.72 99.3687 580.269 98.2222 575.108 95.7482C574.43 96.7096 573.501 99.5239 573.709 102.932C573.373 101.954 573.454 102.397 565.131 93.8126C563.622 99.6682 563.585 96.5724 563.483 105.37C562.873 104.962 562.003 104.24 559.797 101.638C558.029 104.571 555.702 111.916 557.265 118.708C555.695 117.62 555.169 117.434 552.937 116.424C552.937 116.424 552.893 116.424 552.849 116.423C552.843 116.777 550.497 125.315 553.599 132.309C551.203 130.545 548.488 129.438 548.045 129.563C549.293 139.312 550.669 144.11 551.469 146.379C550.293 145.519 548.764 144.609 546.797 143.603C547.575 152.504 548.289 154.638 555.128 164.923C551.573 163.979 548.836 164.154 545.526 164.32C545.603 165.028 546.309 167.649 547.114 169.564C537.63 164.541 527.325 169.056 526.928 169.093C526.926 169.182 528.005 170.615 528.048 170.66C523.832 169.616 518.839 170.24 515.068 171.681C514.358 171.934 513.561 172.142 513.071 172.399C513.889 173.606 514.534 174.59 515.14 175.308C513.034 174.653 509.909 174.336 505.658 175.37C505.437 175.455 505.215 175.495 504.994 175.536C504.728 175.62 504.462 175.704 504.196 175.788C504.019 175.829 501.361 176.625 501.402 176.802C501.531 176.981 502.695 178.548 503.257 179.221C497.013 178.188 489.688 181.205 489.333 181.331C489.633 181.867 490.101 182.892 490.789 183.92C485.837 184.766 480.408 187.726 477.498 190.375C478.324 191.096 479.063 191.727 479.672 192.224C475.29 193.212 470.839 195.746 468.839 196.685C469.274 197.002 472.575 200.02 476.546 202.518C475.754 202.417 474.785 202.356 473.816 202.296C473.199 202.285 472.538 202.274 471.832 202.263C471.788 202.262 471.612 202.259 471.612 202.259L471.785 202.483L472.086 202.93C472.302 203.199 472.516 203.556 472.776 203.826C475.276 207.317 477.539 209.079 479.948 210.048C478.622 210.247 475.969 210.689 476.143 210.869C476.273 211.003 476.75 211.454 476.88 211.588C477.184 211.903 477.531 212.218 477.878 212.578C478.269 212.938 478.615 213.298 479.006 213.658C480.218 215.049 483.612 217.759 487.506 219.593C487.109 219.586 483.872 220.681 483.694 220.767C487.563 224.104 491.875 227.315 496.606 229.163C481.006 231.245 465.308 236.643 450.245 240.901C432.347 245.996 414.575 251.446 397.01 257.696C378.115 264.367 359.43 271.703 340.914 279.441C300.641 296.321 295.403 298.4 294.342 306.518C293.935 309.783 295.381 312.947 294.971 316.389C294.306 321.949 291.715 326.593 293.118 332.365C294.437 337.87 295.653 344.301 295.557 350.092C295.62 354.249 295.151 358.575 294.23 363.6C293.355 368.449 294.528 372.183 296.097 375.924C296.563 377.081 297.073 378.195 297.539 379.353C298.599 381.891 299.614 384.516 300.003 387.618C301.325 398.252 298.098 409.341 295.372 419.509C294.525 422.679 293.634 425.892 292.831 429.106C292.593 430.163 292.31 431.264 292.072 432.321C291.117 436.683 290.382 441.136 290.086 445.641C289.477 455.757 292.199 464.425 294.817 474.019C295.275 475.663 295.601 477.26 295.84 478.812C295.997 479.964 296.111 481.071 296.224 482.223C297.206 497.361 291.488 501.864 293.009 527.049C293.116 528.554 293.996 541.878 295.45 541.991C349.739 546.614 636.16 541.811 636.381 541.815C666.143 541.871 695.886 543.032 725.647 543.132C746.326 543.168 770.964 543.802 790.937 538.564C833.008 527.595 812.829 460.402 811.387 414.613L811.298 414.656ZM681.005 3.86913C683.879 3.43082 690.599 7.61123 681.528 12.1906C674.991 15.5301 668.664 19.448 662.641 23.6805C675.446 14.6976 675.347 4.74721 681.005 3.86913ZM661.733 186.869C678.8 237.031 643.804 270.625 605.657 263.089C605.613 263.088 605.569 263.088 605.525 263.087C598.581 261.688 591.528 258.962 584.677 254.646C536.848 224.751 555.296 157.497 609.311 154.775C609.421 156.148 609.487 157.475 609.553 158.803C604.568 158.985 599.704 159.788 594.646 161.649C577.209 168.166 571.074 181.815 570.939 181.945C572.723 180.737 585.576 163.531 609.582 162.385C609.511 169.281 608.651 175.9 607.341 183.085C607.343 182.997 604.818 181.053 604.601 180.828C602.124 178.664 602.261 175.704 602.754 175.226C598.856 178.964 599.905 184.773 605.115 187.027C609.58 188.959 616.735 188.283 620.064 184.271C621.594 182.439 622.386 179.888 622.162 177.452C621.443 178.28 620.681 179.019 619.875 179.757C620.529 177.558 620.184 177.065 618.397 162.577C627.95 163.488 636.192 166.367 642.173 169.961C643.308 170.643 643.789 170.872 643.789 170.872C643.789 170.872 643.574 170.559 642.794 169.706C637.121 163.509 626.773 160.064 617.971 159.032C617.818 157.659 617.621 156.241 617.423 154.867C645.818 157.597 656.478 171.438 661.735 186.781L661.733 186.869ZM614.786 117.282C614.786 117.282 614.917 117.373 614.914 117.506C617.466 120.511 619.837 123.734 622.209 126.913C622.796 126.083 623.253 125.162 623.577 124.195C623.486 124.414 625.039 126.43 625.21 126.787C625.938 128.081 628.756 133.611 629.214 135.211C631.468 132.286 628.306 128.828 637.921 147.251C638.465 146.331 639.009 145.456 639.509 144.536C639.984 145.163 644.355 155.406 644.44 155.584C644.938 154.796 645.392 154.008 645.891 153.22C646.924 154.697 647.158 156.558 647.702 158.292C647.953 159.092 648.116 159.934 648.279 160.733C648.402 161.266 648.584 163.612 648.976 163.884C648.54 163.612 648.148 163.295 647.712 162.979C640.488 157.242 631.242 153.771 621.743 152.286L627.291 142.165L619.895 152.034C618.928 151.885 617.915 151.78 616.947 151.675C615.379 139.931 613.841 131.637 613.453 120.532C614.274 118.866 614.434 117.232 614.698 117.237L614.786 117.282ZM616.778 74.3813C621.794 61.775 631.754 51.5065 641.729 42.9628C632.707 52.5395 624.653 64.8738 618.503 76.7094C607.616 97.6629 611.55 139.513 615.832 163.064C616.922 169.052 618.998 176.78 615.994 182.434C615.448 183.442 611.826 183.867 610.998 183.235C609.518 182.104 610.741 180.135 611.162 178.727C612.706 173.359 612.889 167.658 612.585 162.081C611.764 147.83 602.141 111.367 616.822 74.4262L616.778 74.3813ZM551.342 153.982C551.093 153.049 548.934 147.663 549.563 146.966C550.057 146.444 552.796 148.744 553.41 148.976C553.19 143.622 551.96 138.074 551.254 132.756C552.517 133.75 553.903 135.233 555.438 135.7C555.318 134.991 555.153 134.281 555.165 133.574C555.165 133.574 555.079 133.484 555.034 133.483C554.716 128.746 554.395 124.231 555.266 119.559C556.443 120.374 557.753 121.148 558.884 122.051C558.758 116.389 559.205 110.737 560.179 105.182C561.534 105.912 562.934 106.599 564.288 107.329C564.92 103.846 565.463 100.318 566.139 96.8362C566.139 96.8362 569.788 100.125 570.134 100.485C571.477 101.922 572.82 103.359 574.253 104.71C576.719 96.9248 573.007 97.4375 581.574 101.958C583.366 102.917 584.993 103.165 586.599 104.695C586.619 103.502 586.638 102.353 586.614 101.158C591.055 104.549 594.866 108.725 599.171 112.334C600.046 107.441 598.872 106.448 605.663 111.735C604.763 128.699 607.564 137.899 609.102 151.455C605.308 151.569 601.598 151.949 598.059 152.641C604.14 139.655 605.228 135.207 605.228 135.207C605.137 135.382 602.395 138.52 595.713 153.177C595.359 153.259 596.29 152.965 593.365 153.845C589.447 145.555 587.658 141.723 584.3 134.238C588.446 120.91 588.846 115.389 588.893 115.213C588.801 115.477 587.002 117.613 583.237 131.832C583.153 131.61 581.665 128.269 573.461 109.914C573.502 110.092 574.749 117.32 580.846 132.456C568.352 128.09 563.818 127.661 563.686 127.614C563.948 127.751 565.908 129.243 581.779 134.682C584.406 141.093 587.854 148.535 590.972 154.601C589.774 155.023 588.576 155.489 587.421 156.001C586.284 155.451 572.029 148.27 568.427 147.458C571.251 149.938 582.008 155.335 585.332 156.983C578.308 160.402 572.097 165.339 567.059 171.357C558.116 165.547 562.465 171.855 551.474 153.984L551.342 153.982ZM583.105 131.83C583.019 131.696 582.552 130.627 583.105 131.83ZM488.793 221.736C488.447 221.289 492.383 220.603 492.914 220.479C492.74 220.388 480.927 212.187 480.708 212.095C480.843 211.92 480.665 212.005 484.262 210.518C481.955 208.667 478.774 206.447 476.376 204.815C477.519 205.011 478.665 205.03 479.814 204.872C478.516 203.347 477.13 201.865 476.011 200.21C475.324 199.137 474.058 198.365 473.458 197.293C475.192 196.438 482.073 193.635 482.739 193.381C481.535 191.548 480.837 191.094 480.888 190.697C480.888 190.697 480.976 190.698 481.02 190.699L481.108 190.7C485.51 188.519 485.383 188.163 493.584 185.515C492.82 183.733 492.348 182.974 492.523 183.065C492.524 182.977 492.525 182.932 492.525 182.932C492.525 182.932 492.569 182.933 492.657 182.935L492.701 182.935C494.332 182.963 496.151 182.33 497.744 182.003C499.026 181.759 500.308 181.559 501.548 181.271C503.052 180.942 504.551 180.967 506.096 180.86C505.536 180.099 504.975 179.338 504.459 178.534C504.459 178.578 509.413 177.599 510.032 177.521C512.197 177.248 514.401 177.285 516.607 177.233C516.915 177.239 517.224 177.244 517.532 177.249C517.406 176.893 517.324 176.538 517.24 176.271C516.695 174.582 516.482 174.136 516.439 174.047L516.441 173.959C516.441 173.959 516.442 173.87 516.443 173.826C516.575 173.828 516.441 173.914 517.327 173.708C526.088 171.865 530.393 172.821 531.809 172.536C531.336 171.776 530.82 171.016 530.348 170.256C533.216 170.083 536.713 169.301 539.524 169.967C542.95 170.776 546.483 170.393 549.583 172.258C548.906 170.567 547.563 166.476 548.482 166.89C548.878 166.896 551.434 167.027 553.854 167.333C557.618 168.988 557.545 168.102 564.765 174.06C560.074 180.393 556.644 187.808 554.879 195.782C547.567 187.391 542.873 185.986 542.699 185.85C544.175 187.246 543.654 186.75 543.784 186.885C543.652 186.839 543.608 186.838 543.608 186.838C543.737 187.017 543.778 187.239 545.463 189.301C546.804 190.871 549.535 193.658 554.206 199.175C553.909 201.116 553.656 203.057 553.58 205.001C553.446 205.087 553.311 205.218 553.178 205.304C549.526 204.845 545.433 204.379 540.899 203.905C535.143 197.397 529.163 191.062 521.54 188.149C528.243 193.39 529.03 193.802 538.346 203.641C537.686 203.541 527.737 202.579 520.428 201.97C508.661 191.029 502.191 187.648 502.017 187.513C502.191 187.648 512.648 197.816 517.522 201.701C494.976 199.908 486.946 200.216 486.814 200.214C487.606 200.316 489.49 201.01 511.099 203.494C508.606 204.912 497.025 211.925 494.742 213.965C498.588 213.367 510.484 206.005 513.827 203.805C518.537 204.326 523.995 204.904 530.333 205.541C526.495 208.351 514.876 217.663 513.247 220.156C516.801 218.535 529.671 208.271 532.667 205.757C537.905 206.287 545.212 207.028 550.451 207.558C546.427 210.895 532.466 223.131 529.436 227.678C530.236 227.294 541.257 219.475 553.613 208.318C553.648 214.155 554.654 219.92 556.459 225.389C548.38 233.965 544.587 239.296 544.407 239.514C552.595 232.355 552.91 232.006 557.427 228.147C560.09 235.089 570.777 252.645 573.829 252.077C573.696 252.075 573.607 252.118 573.475 252.115C566.908 249.308 562.66 244.904 560.112 241.678C558.126 239.124 557.015 237.027 556.413 236.089C556.496 236.4 556.63 238.967 558.374 242.798C559.353 244.893 560.767 247.349 563.019 249.818C564.058 250.985 565.318 252.112 566.755 253.197C566.363 252.925 564.148 253.507 563.618 253.587C562.646 253.703 561.718 253.82 560.789 253.981C558.8 254.302 556.69 253.913 554.658 254.1C555.148 253.799 555.595 253.452 556.085 253.151C556.219 253.065 556.353 252.934 556.311 252.801C556.314 252.624 556.051 252.576 555.918 252.573C553.406 252.531 550.758 252.664 548.251 252.312C547.414 252.21 546.62 252.285 545.782 252.271C545.076 252.303 543.496 251.879 542.874 252.134C544.028 251.667 545.098 250.977 546.038 250.153C541.674 250.08 537.358 249.787 532.999 249.36C534.591 249.121 536.1 248.483 537.395 247.532C533.432 247.201 529.469 246.869 525.507 246.493C526.703 246.204 527.819 245.382 528.497 244.332C523.702 243.677 518.863 243.022 514.068 242.366C515.14 241.5 516.213 240.634 517.329 239.812C515.005 239.022 512.591 238.362 510.313 237.44C508.868 236.841 507.519 235.801 505.879 236.304C506.943 235.968 508.007 235.633 509.07 235.297C509.292 235.212 509.559 235.084 509.519 234.818C509.522 234.685 509.347 234.594 509.215 234.547C494.655 227.185 493.562 223.983 488.791 221.825L488.793 221.736ZM525.465 249.013C524.015 248.723 522.697 248.436 521.422 248.194C522.17 248.294 522.919 248.351 523.579 248.451C523.621 248.54 523.709 248.585 523.841 248.588C524.368 248.729 524.895 248.826 525.465 249.013ZM399.459 261.54C416.132 255.894 432.891 250.382 449.774 245.359C465.106 240.795 481.383 237.752 496.552 232.39C496.99 232.574 497.428 232.758 497.953 232.988C498.479 233.218 498.96 233.403 499.443 233.544C500.707 234.449 502.106 235.18 503.551 235.779C502.661 236.251 501.682 236.809 500.746 237.412C502.72 237.976 504.737 238.673 506.76 238.972C508.871 239.317 510.487 240.228 512.229 241.584C511.911 242.109 511.463 242.544 510.973 242.845C513.684 244.217 516.449 244.971 519.348 245.638C520.226 245.874 521.059 246.198 521.938 246.345C521.444 246.867 520.907 247.389 520.367 247.999C519.4 247.806 518.478 247.614 517.643 247.423C513.864 246.652 511.01 245.941 508.903 245.375C506.752 244.809 505.348 244.343 504.426 244.106C503.549 243.826 503.154 243.731 503.154 243.731C503.154 243.731 503.414 244.001 504.198 244.589C504.938 245.176 506.202 246.037 508.258 247.045C510.269 248.051 513.071 249.248 516.844 250.372C520.573 251.54 525.318 252.548 530.894 253.967C536.162 255.382 540.551 256.605 544.199 257.33C546.439 257.809 548.375 258.063 550.048 258.223C551.275 258.686 552.591 259.106 553.908 259.438C551.565 259.84 550.326 260.085 550.326 260.085C559.39 261.254 553.653 258.903 577.737 263.595C569.397 264.03 564.802 264.572 564.802 264.572C564.802 264.572 576.501 266.36 596.858 267.187L596.902 267.187C609.755 271.205 624.345 271.493 635.721 266.157C650.972 263.847 659.659 261.163 659.659 261.163C659.659 261.163 654.593 260.857 645.679 261.283C647.327 260.337 648.844 259.213 650.276 257.955C653.413 257.609 655.895 256.811 657.672 256.001C660.204 254.893 661.367 253.896 661.367 253.896C661.367 253.896 659.868 253.871 657.266 253.96C656.34 253.944 655.281 253.971 654.09 253.995C656.206 251.377 657.931 248.444 659.304 245.372C665.81 236.018 669.786 224.942 670.836 212.181C671.004 210.061 670.731 207.89 670.547 205.72C682.329 210.472 694.889 213.468 706.67 218.308C719.852 223.702 732.382 231.207 744.787 238.268C756.93 245.148 769.306 251.324 781.77 257.502C792.44 262.81 802.857 267.45 813.758 272.143C812.707 271.683 806.716 274.015 804.949 274.206C800.533 274.619 796.118 274.943 791.705 275.178C782.879 275.65 774.015 275.722 765.151 275.751C747.469 275.809 729.703 275.6 712.113 278.091C694.213 280.622 676.626 285.545 658.573 286.658C618.54 289.083 578.684 278.246 538.659 285.536C509.955 290.759 482.609 299.233 452.978 296.571C426.782 294.231 400.167 293.211 374.427 300.518C339.106 308.594 329.212 296.357 313.229 294.984C341.57 282.415 370.193 271.441 399.548 261.497L399.459 261.54ZM319.838 303.231C359.619 315.967 375.286 304.512 398.624 301.144C434.734 295.956 470.789 307.348 495.932 301.446C583.002 281.104 584.137 287.048 617.755 291.237C639.448 293.943 660.826 291.736 682.351 288.603C703.524 285.464 724.702 282.016 746.069 280.428C756.532 279.675 766.994 278.965 777.484 279.229C785.196 279.447 792.852 280.459 800.561 280.898C804.878 281.147 807.966 281.022 810.502 284.955C813.253 289.246 813.511 294.954 810.836 299.375C810.744 299.551 810.609 299.725 810.518 299.901C806.357 306.198 800.742 304.424 794.296 304.979C784.802 305.793 775.228 306.12 765.658 306.269C746.869 306.574 728.047 306.214 709.246 307.271C690.93 308.335 672.744 309.49 654.381 308.077C637.47 306.821 619.235 302.979 602.379 306.367C593.841 308.081 585.993 310.691 577.133 310.499C567.745 310.253 558.78 308.467 549.542 307.163C533.97 304.957 518.089 308.051 502.825 311.156C450.885 321.695 443.202 314.359 410.15 315.973C387.953 317.061 373.002 325.167 342.252 320.939C332.838 319.632 308.365 317.011 299.552 316.687C302.554 300.598 306.724 299.032 319.883 303.231L319.838 303.231ZM298.094 343.369C329.92 338.596 361.782 347.619 393.779 345.855C426.085 344.052 458.264 339.284 490.676 339.075C523.881 338.879 557.13 341.381 590.322 339.372C607.226 338.372 623.898 335.423 640.726 333.715C657.112 332.044 673.493 330.726 689.953 329.94C733.331 327.836 752.154 328.151 781.948 328.915C784.02 328.95 803.83 328.22 798.893 333.399C796.38 336.054 786.619 334.388 783.491 334.203C778.866 333.949 774.247 333.296 769.619 333.175C755.604 332.808 680.405 336.634 665.305 337.841C636.345 339.965 599.984 344.309 553.922 346.014C530.931 347.133 510.021 347.711 491.314 345.807C486.647 345.375 482.162 344.636 477.584 344.162C464.551 343.06 453.156 344.195 440.163 345.968C432.605 347.035 425.575 348.2 418.945 349.15C412.315 350.144 406.129 350.881 400.3 351.447C387.933 352.699 377.904 353.858 349.386 350.595C332.354 348.674 314.225 346.425 298.826 347.096C298.671 345.811 298.427 344.569 298.183 343.327L298.094 343.369ZM297.533 424.763C307.495 427.583 319.186 427.204 329.357 428.081C332.219 428.35 335.079 428.663 337.94 428.976C344.976 430.111 352.059 431.114 359.145 431.896C372.911 433.983 392.321 433.468 398.28 433.081C413.949 432.105 429.509 429.713 445.203 429.931C460.456 430.142 475.586 432.429 490.733 433.7C553.61 438.952 616.802 433.289 679.682 430.406C697.554 429.599 715.373 429.234 733.227 429.489C749.889 429.768 766.572 431.462 783.192 431.696C783.189 431.828 783.188 431.917 783.23 432.05C783.142 432.049 783.098 432.048 783.009 432.046L777.861 434.083C769.794 433.948 760.186 433.698 748.77 433.419C733.697 433.034 721.438 433.094 711.507 433.68C702.371 434.234 695.258 435.044 689.819 435.97C689.819 435.97 689.775 435.969 689.731 435.968C677.158 436.377 662.026 436.875 643.891 437.589C606.13 438.682 570.58 444.631 533.874 440.568C511.118 438.109 490.413 437.011 471.634 436.696C462.245 436.539 453.337 436.611 444.913 436.78C436.488 436.948 428.549 437.081 421.095 437.221C396.086 437.687 376.07 437.574 360.161 437.086C360.161 437.086 360.072 437.085 360.028 437.084L359.984 437.083C333.694 435.096 314.936 430.891 296.487 429.3C296.821 427.802 297.199 426.261 297.578 424.72L297.533 424.763ZM787.813 530.244C773.609 535.887 757.387 535.615 742.436 535.807C706.758 536.227 671.029 534.391 635.354 534.635C599.06 534.912 562.78 537.046 526.523 537.81C490.707 538.581 454.875 537.584 419.019 538.089C386.383 538.56 353.8 538.413 321.169 538.574C318.17 538.613 295.09 539.73 303.543 532.576C306.629 529.974 315.977 532.607 319.722 532.758C365.714 535.252 732.245 530.862 732.421 530.864C736.342 531.063 740.881 531.271 746.261 531.229C752.17 531.151 759.009 530.867 766.839 529.362C807.826 519.967 808.181 493.31 802.865 449.756C802.634 447.762 802.401 445.857 802.212 443.953C801.994 443.816 801.866 443.549 801.783 443.238C801.785 443.105 801.787 443.017 801.745 442.884C796.796 406.41 807.406 357.065 807.453 356.933C807.453 356.933 806.899 358.427 805.733 362.255C795.402 397.455 798.932 429.129 797.502 435.561C797.712 436.183 798.282 439.023 799.475 449.478C800.049 454.705 800.708 460.155 801.23 465.912C804.25 501.645 794.363 523.5 756.897 528.002C756.72 527.999 756.588 527.997 756.412 527.994C750.675 528.252 744.285 528.056 737.538 528.076C441.197 527.583 339.487 537.378 299.294 525.607C298.688 524.889 298.129 524.084 297.704 523.104C295.708 518.516 297.513 510.764 298.514 506.227C301.615 492.085 308.427 490.784 321.721 492.156C358.753 500.469 401.95 488.06 439.743 493.07C455.934 495.198 471.494 500.764 487.636 503.157C519.262 507.798 550.699 499.923 582.175 497.664C611.003 495.582 744.061 501.788 787.469 489.957C788.044 489.833 787.926 488.991 787.354 488.938C771.15 487.561 754.701 490.381 738.468 490.773C634.147 493.228 639.839 490.36 596.03 491.794C564.046 492.806 532.384 500.943 500.314 499.168C483.926 498.275 468.444 493.285 452.449 489.966C438.783 487.173 424.994 486.412 411.051 486.974C383.034 488.097 355.7 493.167 328.144 490.362C324.498 489.549 320.806 488.824 317.114 488.099C312.06 487.131 306.305 485.84 301.09 486.549C301.066 485.355 300.998 484.116 300.842 482.919C307.133 483.776 314.218 484.602 322.187 485.31C351.245 487.919 346.427 485.981 408.305 482.462C411.041 482.287 413.866 482.113 416.779 481.941C419.692 481.768 422.738 481.554 425.781 481.517C431.955 481.443 438.516 481.995 445.421 483.083C452.37 484.128 459.618 485.753 467.303 487.65C474.943 489.591 483.242 491.675 492.176 492.665C496.621 493.181 501.202 493.479 505.919 493.558C510.635 493.637 515.445 493.408 520.343 493.225C530.138 492.814 540.422 492.19 551.197 491.22C556.232 490.73 561.179 490.194 565.951 489.61C597.943 485.459 592.093 487.262 629.707 487.14C637.204 487.044 644.304 486.986 651.007 486.921C708.695 486.074 755.887 482.707 756.063 482.71C682.676 483.693 662.612 483.755 657.276 483.799C606.876 483.884 599.885 482.705 583.154 483.929C578.254 484.245 573.171 485 568.132 485.712C563.05 486.378 557.837 486.998 552.493 487.528C541.761 488.586 531.477 489.21 521.68 489.665C516.782 489.893 512.016 490.123 507.387 490.089C502.757 490.1 498.264 489.848 493.906 489.422C485.146 488.523 477.019 486.707 469.247 484.764C461.474 482.866 454.004 481.326 446.922 480.279C439.841 479.232 433.06 478.676 426.664 478.834C423.444 478.869 420.398 479.127 417.483 479.388C414.525 479.604 411.7 479.822 408.962 480.041C373.243 482.937 371.208 483.345 356.701 483.367C347.97 483.354 336.952 483.037 323.083 481.832C314.585 481.115 307.015 480.281 300.37 479.507C300.287 479.151 300.204 478.841 300.165 478.53C297.486 467.343 293.102 457.851 293.963 445.883C295.349 426.141 315.43 438.283 357.727 440.229C363.411 440.501 368.348 440.539 372.54 440.389L372.628 440.39C385.979 440.923 401.715 441.23 420.191 441.186C427.644 441.134 435.537 441.089 443.916 441.052C452.295 440.971 461.07 440.941 470.326 441.14C488.882 441.539 509.412 442.635 531.904 445.001C537.141 445.575 542.469 446.062 547.535 446.323C552.646 446.542 557.627 446.625 562.522 446.574C588.188 446.34 613.552 443.095 637.56 441.816C665.76 440.343 687.475 439.07 703.85 438.106C711.265 437.655 717.621 437.231 722.962 436.922C730.325 436.957 738.699 437.142 748.264 437.346C762.28 437.669 773.787 437.773 783.094 437.575C784.374 437.508 785.609 437.484 786.8 437.416C793.729 458.269 786.731 486.628 787.143 485.706C793.184 472.454 803.068 429.641 781.189 427.506C771.812 426.597 762.217 425.552 752.83 425.307C733.79 424.767 714.725 425.775 695.671 426.163C664.134 426.785 632.619 428.734 601.119 429.754C569.663 430.82 538.128 431.353 506.72 429.501C491.303 428.58 475.991 426.599 460.625 425.281C445.038 423.959 429.768 424.765 414.268 426.186C387.462 428.655 360.711 427.854 333.94 425.593C332.665 425.395 331.39 425.153 330.07 424.954C320.132 423.328 308.667 420.749 298.461 421.993C299.076 419.483 299.692 416.929 300.262 414.418C301.403 409.485 300.563 401.688 303.767 397.232C308.959 389.979 317.944 393.224 325.441 393.129C350.212 393.676 415.959 388.188 440.651 390.812C456.232 392.487 471.669 394.868 487.362 395.131C518.527 395.652 549.733 391.089 580.534 387.006C613.588 382.651 645.705 381.597 678.903 384.496C713.775 387.511 751.198 393.532 784.669 379.987C785.469 379.647 785.179 378.536 784.339 378.655C752.164 383.157 720.426 382.626 688.146 380.229C656.438 377.841 625.362 377.277 593.646 380.726C562.283 384.136 531.14 390.248 499.556 391.001C483.809 391.357 468.305 390.346 452.687 388.272C437.244 386.245 421.775 383.112 406.161 383.425C375.33 384.015 359.976 389.86 340.694 390.687C327.49 389.272 313.325 389.919 302.258 381.952C302.217 381.73 302.133 381.508 302.093 381.242C302.62 381.383 303.146 381.569 303.717 381.711C327.015 388.645 345.87 379.056 391.431 378.271C399.195 378.091 407.879 378.236 417.569 378.841C427.26 379.445 437.956 380.552 449.608 382.472C455.105 383.36 460.246 384.463 465.347 385.3C467.853 385.74 470.362 386.003 472.781 386.353C475.203 386.57 477.578 386.875 479.868 387.046C489.116 387.776 497.45 387.738 504.862 387.464C519.732 386.829 531.09 385.25 539.578 383.933C548.11 382.617 553.818 381.43 557.402 380.694C560.986 379.914 562.491 379.585 562.491 379.585C562.491 379.585 561.431 379.656 558.384 379.959C555.336 380.306 550.255 380.884 542.216 381.766C534.177 382.605 523.177 383.836 508.223 384.249C500.767 384.478 492.302 384.469 482.79 383.735C478.033 383.434 473.016 382.819 467.782 382.024C462.55 381.141 456.969 379.986 451.034 378.958C427.289 375.024 407.632 374.518 391.88 375.139C385.306 375.382 379.391 375.814 374.09 376.389C374.046 376.388 374.002 376.387 373.958 376.386C370.739 376.377 366.859 376.4 362.27 376.589C331.207 377.882 324.673 383.653 304.692 378.765C303.418 378.478 302.145 378.147 301.004 377.819C301.005 377.774 301.005 377.73 300.962 377.685C293.926 355.371 303.765 349.655 323.661 351.712C331.101 352.455 339.329 353.478 348.44 354.47C363.227 356.132 376.663 356.888 391.139 356.113C402.569 355.508 411.323 354.063 417.827 352.757C419.154 352.47 420.393 352.225 421.588 351.936C427.29 351.147 433.256 350.318 439.576 349.451C447.044 348.471 454.906 347.629 463.288 347.416C467.477 347.353 471.754 347.381 476.113 347.763C478.316 347.888 480.47 348.278 482.758 348.538C485.046 348.841 487.377 349.19 489.754 349.451C508.634 351.579 529.586 351.134 552.532 350.059C595.548 348.568 630.583 344.423 659.022 341.848C706.851 337.254 747.932 335.421 802.995 338.641C802.635 347.036 803.629 366.774 788.375 377.263C788.018 377.523 788.226 378.233 788.671 378.02C796.261 374.963 800.265 367.558 802.686 359.86C803.85 356.121 813.409 327.585 804.865 326.955C787.998 325.7 770.804 325.545 753.919 325.395C736.946 325.244 719.923 325.445 702.937 326.001C669.055 327.159 635.468 331.726 601.658 333.813C567.848 335.9 534.282 333.924 500.47 333.446C414.818 332.19 421.874 350.658 348.758 340.636C341.808 339.679 334.475 340.485 327.467 340.279C317.947 340.032 308.532 338.769 299.115 337.638C300.151 333.676 301.142 329.757 302.178 325.795C312.841 326.283 323.099 324.554 333.564 326.32C355.724 330.096 408.523 323.639 417.618 322.907C450.159 320.268 457.684 326.452 505.79 318.502C516.667 316.694 526.388 312.789 537.854 312.671C557.743 312.473 576.913 315.801 597.049 314.015C607.824 313.046 618.605 311.679 629.416 311.197C640.227 310.714 649.848 312.865 660.5 313.928C672.297 315.142 684.82 315.13 696.911 314.537C709.886 313.87 723.161 311.041 736.122 311.169C760.722 311.404 786.23 312.715 810.443 307.063C806.371 308.011 812.451 348.041 812.401 353.656C812.27 372.136 805.891 389.804 805.803 408.374C805.458 468.857 826.024 515.407 788.072 530.558L787.813 530.244Z" fill="#F67D6B" fill-opacity="0.65"/>
<path d="M611.594 192.485C615.749 191.847 618.774 190.218 618.951 190.176C611.041 191.238 607.866 191.273 604.752 190.293C600.366 188.848 597.997 185.493 598.018 181.602C598.145 179.26 598.73 178.519 598.642 178.517C598.507 178.692 597.57 179.384 597.138 181.454C596.896 182.733 596.866 184.545 597.845 186.684C599.458 190.425 604.344 193.602 611.637 192.53L611.594 192.485Z" fill="#F67D6B" fill-opacity="0.65"/>
<path d="M622.44 256.074C615.413 257.061 608.852 256.509 603.187 255.132C593.965 252.9 585.006 248.063 577.961 242.197C569.481 235.069 566.33 225.731 563.966 222.021C565.688 227.223 566.904 230.958 569.862 236.048C571.32 238.504 573.346 241.28 576.168 243.936C582.896 250.327 592.152 255.832 601.941 258.472C607.912 260.031 614.822 260.81 622.335 259.786C629.361 258.842 635.528 256.558 640.605 253.548C645.681 250.537 649.668 246.801 652.597 243.004C658.457 235.32 660.565 227.882 661.362 222.413C662.522 213.633 660.538 208.338 660.375 207.539C660.268 208.643 661.833 217.91 657.418 228.891C656.13 232.097 654.306 235.692 651.555 239.36C648.806 242.94 645.172 246.682 640.273 249.651C635.416 252.665 629.38 255.084 622.352 256.072L622.44 256.074Z" fill="#F67D6B" fill-opacity="0.65"/>
<path d="M633.707 241.449C605.47 258.398 580.905 237.515 579.985 237.146C579.985 237.146 580.242 237.592 581.064 238.579C581.885 239.565 583.27 241.092 585.663 243.033C598.806 253.467 618.045 255.248 634.27 244.687C638.507 241.795 641.332 238.968 643.223 236.656C646.374 232.774 647.249 230.533 647.612 229.92C647.433 230.05 642.817 234.527 642.639 234.657C640.625 236.436 637.895 238.867 633.709 241.361L633.707 241.449Z" fill="#F67D6B" fill-opacity="0.65"/>
<path d="M313.031 513.544C312.295 515.388 313.629 517.312 316.061 516.955C317.564 516.715 318.037 514.777 317.44 513.573C316.374 511.345 313.72 511.875 313.03 513.588L313.031 513.544Z" fill="#F67D6B" fill-opacity="0.65"/>
<path d="M343.698 509.547C343.027 510.11 343.009 511.215 343.66 511.801C344.562 513.275 346.999 512.564 347.03 510.708C347.061 508.851 344.692 508.104 343.699 509.502L343.698 509.547Z" fill="#F67D6B" fill-opacity="0.65"/>
<path d="M355.178 524.463C352.037 525.118 354.195 530.548 357.497 528.216C359.585 527.278 359.299 525.947 358.513 525.447C358.12 525.22 356.728 524.091 355.223 524.419L355.178 524.463Z" fill="#F67D6B" fill-opacity="0.65"/>
<path d="M393.911 525.995C390.384 525.936 390.29 531.595 393.817 531.654C397.343 531.713 397.437 526.054 393.911 525.995Z" fill="#F67D6B" fill-opacity="0.65"/>
<path d="M409.314 506.577C407.026 503.62 402.717 508.191 405.368 510.534C405.411 510.579 405.498 510.669 405.541 510.714C406.628 511.661 408.342 511.955 409.42 510.779C410.498 509.603 410.436 508.01 409.487 506.756C409.445 506.667 409.401 506.622 409.315 506.532L409.314 506.577Z" fill="#F67D6B" fill-opacity="0.65"/>
<path d="M432.803 520.544C430.026 520.498 429.951 525.007 432.728 525.053C435.506 525.1 435.581 520.591 432.803 520.544Z" fill="#F67D6B" fill-opacity="0.65"/>
<path d="M466.983 506.834C466.067 506.244 465.092 506.537 464.289 507.143C464.244 507.142 464.199 507.23 464.154 507.273C463.35 507.923 463.321 509.647 464.104 510.279C464.148 510.28 464.191 510.369 464.234 510.414C464.93 511 465.762 511.324 466.65 510.941C467.45 510.6 468.037 509.77 468.052 508.842C468.066 508.046 467.638 507.243 466.983 506.834Z" fill="#F67D6B" fill-opacity="0.65"/>
<path d="M473.143 520.865C471.991 521.2 471.353 522.472 471.819 523.629C472.243 524.653 473.641 525.384 474.624 524.649C475.472 524 476.283 522.996 475.817 521.839C475.394 520.771 474.119 520.528 473.188 520.822L473.143 520.865Z" fill="#F67D6B" fill-opacity="0.65"/>
<path d="M516.441 515.665C515.761 516.803 516.131 518.401 517.222 519.083C518.575 519.946 520.308 519.134 520.774 517.639C521.612 514.956 517.848 513.257 516.441 515.665Z" fill="#F67D6B" fill-opacity="0.65"/>
<path d="M593.604 502.453C591.929 502.425 590.705 504.394 591.606 505.913L591.734 506.136C592.548 507.565 594.488 507.597 595.349 506.196L595.485 505.978C596.436 504.49 595.279 502.481 593.604 502.453Z" fill="#F67D6B" fill-opacity="0.65"/>
<path d="M575.542 520.014C572.833 518.51 570.485 521.831 571.865 523.711C573.717 526.307 575.508 524.701 576.575 524.144C577.596 523.763 578.572 523.426 579.465 522.733C581.432 521.086 575.455 519.925 575.586 520.015L575.542 520.014Z" fill="#F67D6B" fill-opacity="0.65"/>
<path d="M672.139 518.005C671.319 519.583 670.717 521.342 672.37 522.696C673.501 523.599 675.132 523.626 676.663 521.751C677.787 520.399 674.007 514.41 672.139 518.005Z" fill="#F67D6B" fill-opacity="0.65"/>
<path d="M334.07 409.809C332.54 411.685 333.561 413.913 335.456 413.945C336.25 413.958 337.006 413.529 337.415 412.828C337.96 411.864 337.757 410.8 337.109 409.993C336.246 408.873 334.7 409.024 334.07 409.809Z" fill="#F67D6B" fill-opacity="0.65"/>
<path d="M359.318 402.892C358.592 404.162 359.007 405.717 360.184 406.532C361.579 407.484 363.49 406.587 363.957 405.004C364.798 402.188 360.86 400.309 359.318 402.892Z" fill="#F67D6B" fill-opacity="0.65"/>
<path d="M394.745 412.284C391.571 412.231 391.486 417.359 394.66 417.412C397.834 417.465 397.919 412.337 394.745 412.284Z" fill="#F67D6B" fill-opacity="0.65"/>
<path d="M472.405 406.288C469.187 406.234 469.101 411.406 472.319 411.459C475.537 411.513 475.623 406.341 472.405 406.288Z" fill="#F67D6B" fill-opacity="0.65"/>
<path d="M451.604 400.324C451.323 401.292 452.053 402.498 453.069 402.382C453.775 402.35 455.492 402.511 455.772 401.543C456.146 400.267 452.353 397.684 451.605 400.28L451.604 400.324Z" fill="#F67D6B" fill-opacity="0.65"/>
<path d="M600.952 415.955C597.293 415.894 597.195 421.773 600.854 421.835C604.513 421.896 604.61 416.017 600.952 415.955Z" fill="#F67D6B" fill-opacity="0.65"/>
<path d="M569.301 404.858C568.818 404.717 568.289 404.753 567.761 404.7C565.47 404.573 565.404 408.507 567.699 408.413C568.184 408.421 568.757 408.43 569.244 408.306C569.687 408.181 570.088 407.922 570.488 407.708C571.29 407.235 571.31 405.997 570.525 405.497C570.132 405.27 569.74 404.954 569.301 404.858Z" fill="#F67D6B" fill-opacity="0.65"/>
<path d="M659.014 400.567C659.117 404.946 665.25 404.695 665.141 400.669C665.082 398.944 658.905 396.541 659.014 400.567Z" fill="#F67D6B" fill-opacity="0.65"/>
<path d="M718.26 414.735C717.886 413.358 716.491 412.406 715.109 413.267C713.818 414.041 713.513 416.468 715.044 417.201C715.525 417.43 715.875 417.613 716.404 417.622C716.624 417.626 716.845 417.629 717.067 417.545C717.555 417.332 717.644 417.289 717.377 417.417C717.731 417.379 718 417.118 718.225 416.812C718.315 416.725 718.448 416.639 718.538 416.552C719.12 416.031 718.872 415.055 718.26 414.735Z" fill="#F67D6B" fill-opacity="0.65"/>
<path d="M753.786 402.241C752.248 399.297 747.548 400.854 748.245 404.05C748.239 404.359 748.323 404.626 748.451 404.893C748.62 405.338 748.878 405.696 749.182 406.011C750.222 407.089 751.852 407.205 753.057 406.297C754.219 405.388 754.6 403.714 753.872 402.375C753.873 402.331 753.83 402.242 753.787 402.197L753.786 402.241Z" fill="#F67D6B" fill-opacity="0.65"/>
<path d="M786.192 397.124L786.281 397.037C786.281 397.037 786.148 397.123 786.104 397.122C782.461 398.741 786.367 405.13 789.465 401.777C790.678 400.471 788.957 395.224 786.192 397.124Z" fill="#F67D6B" fill-opacity="0.65"/>
<path d="M596.805 238.577C596.805 238.577 599.277 241.05 605.647 242.483C612.808 244.018 621.688 242.973 628.772 238.581C630.332 237.59 631.005 236.894 631.721 236.287C631.721 236.287 631.544 236.284 631.057 236.409C628.978 236.816 623.865 239.383 614.987 240.296C607.479 241.011 599.793 239.202 596.804 238.621L596.805 238.577Z" fill="#F67D6B" fill-opacity="0.65"/>
<path d="M547.958 468.571C546.318 469.074 546.202 470.752 546.202 470.752C546.202 470.752 546.964 472.666 548.604 472.163C550.111 471.658 550.271 469.98 550.271 469.98C550.271 469.98 549.643 468.024 548.002 468.572L547.958 468.571Z" fill="#F67D6B" fill-opacity="0.65"/>
<path d="M781.559 368.128C778.732 368.435 774.094 368.976 766.761 369.782C738.007 372.75 713.166 373.705 682.864 371.65C661.063 370.18 643.229 368.732 628.764 368.888C614.302 368.867 603.255 370.318 595.116 371.818C591.046 372.678 587.682 373.418 584.934 374.256C583.561 374.631 582.32 375.008 581.257 375.3C580.193 375.68 579.261 376.019 578.418 376.314C575.179 377.542 573.849 378.006 573.849 378.006C573.849 378.006 575.176 377.719 578.497 376.89C579.338 376.683 580.268 376.433 581.331 376.142C582.437 375.939 583.676 375.694 585.047 375.408C586.418 375.165 587.925 374.749 589.604 374.511C591.284 374.23 593.141 373.951 595.13 373.631C603.173 372.572 613.992 371.603 628.228 371.93C641.366 372.061 660.872 373.714 681.835 375.215C714.779 377.49 748.758 375.848 780.71 368.822C783.986 368.036 785.359 367.705 785.359 367.705C785.359 367.705 784.388 367.733 781.56 368.084L781.559 368.128Z" fill="#F67D6B" fill-opacity="0.65"/>
<path d="M404.13 309.372C433.238 306.321 462.386 314.149 489.261 307.48C492.052 306.687 493.204 306.396 493.204 306.396C493.204 306.396 492.365 306.426 489.934 306.784C488.74 306.985 487.151 307.135 485.031 307.321C461.836 310.072 431.264 303.061 404.456 305.707C367.578 309.335 348.125 320.373 311.179 309.541C312.099 309.91 317.684 313.408 329.159 315.457C354 319.764 378.909 312.001 404.085 309.415L404.13 309.372Z" fill="#F67D6B" fill-opacity="0.65"/>
<path d="M539.911 297.671C545.61 297.015 552.279 296.375 560.046 295.974C584.935 294.71 596.621 297.294 620.398 299.328C626.694 299.875 633.344 300.34 640.351 300.59C643.876 300.737 647.447 300.753 651.151 300.726C654.811 300.743 658.695 300.499 662.538 300.077C669.783 299.27 676.596 297.924 683.009 296.749C689.467 295.531 695.523 294.571 701.396 294.095C707.269 293.574 712.918 293.226 718.31 292.476C723.746 291.771 728.617 290.482 733.302 289.809C752.093 286.719 766.781 286.434 777.801 286.662C788.863 286.936 796.346 287.724 801.01 288.289C805.719 288.854 807.655 289.108 807.655 289.108C805.194 288.624 797.206 286.368 781.575 285.045C771.139 284.252 756.686 283.656 737.287 286.161C732.471 286.744 727.253 287.674 721.902 288.645C716.552 289.529 710.768 289.962 704.588 290.39C701.498 290.603 698.275 290.859 694.961 291.246C691.648 291.632 688.288 292.195 684.838 292.801C677.984 294.012 670.817 295.44 663.261 296.375C655.706 297.31 648.432 297.188 641.468 297.071C634.504 296.911 627.897 296.49 621.6 295.987C597.071 294.118 584.545 291.653 560.483 293.55C552.624 294.17 545.864 295.029 540.117 295.906C528.578 297.747 521.009 299.477 516.272 300.636C511.535 301.795 509.63 302.338 509.63 302.338C509.63 302.338 511.531 302.016 516.262 301.211C520.994 300.406 528.555 299.117 539.998 297.761L539.911 297.671Z" fill="#F67D6B" fill-opacity="0.65"/>
<path d="M449.874 257.873C454.509 257.553 460.143 258.133 464.477 260.063C465.133 260.339 465.832 260.749 466.264 261.287C466.479 261.6 466.65 261.912 466.688 262.311C466.803 263.33 466.081 264.334 466.24 265.354C466.481 266.773 468.237 267.245 469.604 267.268C472.952 267.412 476.272 266.672 479.587 266.152C482.107 265.752 486.535 264.633 488.939 265.911C491.124 267.097 492.279 269.239 494.999 270.08C497.807 270.923 500.069 270.121 502.849 269.946C505.322 269.767 507.832 269.941 510.349 269.718C516.751 269.206 523.113 268.472 529.512 268.093C531.146 267.988 531.808 267.91 531.808 267.91C531.808 267.91 531.325 267.814 529.961 267.658C523.447 266.93 516.874 267.13 510.299 267.418C506.328 267.573 498.322 269.119 494.976 266.144C494.238 265.469 493.679 264.619 492.94 263.944C491.638 262.728 489.839 262.167 488.077 262.05C482 261.594 475.845 265.824 469.834 264.044C469.527 263.906 471.327 261.725 469.211 259.081C464.155 252.894 446.243 256.176 438.837 258.705C437.24 259.253 436.617 259.597 436.617 259.597C437.908 258.911 440.331 258.996 441.745 258.798C444.442 258.401 447.138 258.004 449.875 257.829L449.874 257.873Z" fill="#F67D6B" fill-opacity="0.65"/>
<path d="M405.734 273.937C408.672 274.914 406.659 276.649 406.851 278.377C407.039 280.326 409.102 280.891 410.727 281.272C413.714 281.941 416.113 280.876 418.9 280.303C421.245 279.812 424.55 279.956 426.688 281.274C428.478 282.365 429.379 283.883 431.528 284.582C436.44 286.124 442.014 285.023 446.966 284.222C448.072 284.019 448.558 283.939 448.558 283.939C448.558 283.939 448.251 283.845 447.282 283.785C446.314 283.68 444.728 283.609 442.26 283.524C425.736 282.849 432.689 281.064 429.207 278.309C428.724 278.212 426.486 274.903 416.118 277.913C414.168 278.5 411.641 279.297 409.808 278.161C410.897 276.367 411.847 274.923 410.063 273.434C408.454 272.125 405.369 272.029 403.427 272.129C398.926 272.364 394.526 274.412 390.486 276.113C389.42 276.582 388.976 276.751 388.976 276.751C388.976 276.751 389.461 276.76 390.611 276.514C395.078 275.704 401.349 272.448 405.822 273.938L405.734 273.937Z" fill="#F67D6B" fill-opacity="0.65"/>
<path d="M688.274 237.366C689.502 240.393 685.977 242.943 686.987 245.834C687.155 246.323 687.456 246.815 687.888 247.308C690.01 249.643 693.781 248.247 696.517 248.116C699.695 247.948 703.804 247.442 706.638 249.347C710.563 251.933 708.754 257.297 712.324 260.054C715.328 262.359 719.326 260.569 722.716 260.891C724.258 261.005 725.268 261.199 725.926 261.431C726.539 261.662 726.847 261.756 726.847 261.756C726.847 261.756 726.717 261.621 726.238 261.259C722.704 258.989 715.645 261.878 713.786 256.983C712.772 254.313 714.75 252.047 712.546 249.401C708.439 244.469 700.166 246.143 694.702 245.875C686.2 245.423 694.011 234.411 685.375 234.046C681.982 233.9 680.206 234.666 678.3 235.254C680.605 234.541 687.087 234.516 688.318 237.411L688.274 237.366Z" fill="#F67D6B" fill-opacity="0.65"/>
<path d="M692.185 219.656C697.318 221.201 702.834 223.549 704.54 227.026C704.839 227.606 704.96 228.271 705.123 229.114C705.284 230.001 705.487 231.066 705.954 232.179C706.377 233.247 707.109 234.321 708.02 235.22C708.931 236.076 710.023 236.713 711.162 237.174C713.396 238.052 715.772 238.357 718.15 238.529C722.466 238.823 728.317 236.975 731.969 240.087C733.535 241.395 734.427 243.4 735.679 245.057C738.742 249.088 743.873 250.766 748.749 251.864C753.626 252.918 758.728 253.711 762.823 256.654C760.339 254.888 758.963 252.787 755.941 251.586C750.202 249.324 742.662 249.375 738.65 244.001C736.71 241.36 736.973 238.8 733.827 237.111C731.381 235.7 728.517 235.563 726.006 235.433C725.389 235.423 724.772 235.368 724.2 235.314C723.584 235.26 722.879 235.204 722.307 235.15C721.073 235.129 719.884 235.021 718.739 234.957C714.685 234.757 712.043 234.58 709.723 230.871C708.048 228.235 707.22 224.993 704.785 222.918C701.569 220.079 696.734 219.202 692.738 218.206C688.918 217.258 686.273 217.214 684.641 217.231C683.008 217.292 682.39 217.37 682.39 217.37C682.39 217.37 683.049 217.514 684.587 217.805C686.521 218.191 689.289 218.768 692.229 219.657L692.185 219.656Z" fill="#F67D6B" fill-opacity="0.65"/>
<path d="M525.7 258.7C530.887 259.715 534.323 259.861 536.397 259.763C538.471 259.665 539.181 259.412 539.181 259.412C539.181 259.412 538.703 259.006 536.86 258.444C535.018 257.883 531.812 257.122 526.318 256.013C520.825 254.904 517.262 254.402 515.104 254.277C512.945 254.153 512.193 254.317 512.193 254.317C512.193 254.317 512.802 254.814 514.817 255.599C516.832 256.385 520.121 257.501 525.701 258.655L525.7 258.7Z" fill="#F67D6B" fill-opacity="0.65"/>
<path d="M110.4 466.6C87.8 466.6 68.1 462.3 51.3 453.7C34.7 445.1 22 433.5 13.2 418.9C4.4 404.1 0 387.7 0 369.7C0 350.5 5 333.5 15 318.7C25 303.9 38.8 292.5 56.4 284.5C74 276.3 93.7 272.2 115.5 272.2C125.5 272.2 135.2 273 144.6 274.6C154.2 276.2 162 278.5 168 281.5C169.8 282.3 170.8 283 171 283.6C171.4 284.2 171.7 285.8 171.9 288.4L175.8 328C175.8 328.6 175.2 329 174 329.2C173 329.4 172.4 329.1 172.2 328.3C168 315.7 160.3 304.2 149.1 293.8C137.9 283.2 123.5 277.9 105.9 277.9C92.1 277.9 79.5 281.4 68.1 288.4C56.9 295.4 48 305.5 41.4 318.7C35 331.7 31.8 346.8 31.8 364C31.8 382.2 35.3 398.8 42.3 413.8C49.5 428.6 59.6 440.3 72.6 448.9C85.8 457.5 100.9 461.8 117.9 461.8C126.5 461.8 133.2 460.8 138 458.8C142.8 456.8 146.3 453.2 148.5 448C150.7 442.8 151.8 435.2 151.8 425.2C151.8 414.8 151.2 407.6 150 403.6C148.8 399.4 146.1 396.6 141.9 395.2C137.9 393.8 130.8 393.1 120.6 393.1C119.4 393.1 118.8 392.3 118.8 390.7C118.8 390.1 118.9 389.6 119.1 389.2C119.5 388.6 119.9 388.3 120.3 388.3C136.9 389.3 150.2 389.8 160.2 389.8C170.2 389.8 180.6 389.5 191.4 388.9C191.8 388.9 192.1 389.2 192.3 389.8C192.7 390.2 192.9 390.6 192.9 391C192.9 392.4 192.4 393.1 191.4 393.1C187.4 392.9 184.6 393.6 183 395.2C181.4 396.6 180.3 399.6 179.7 404.2C179.3 408.8 179.1 416.8 179.1 428.2C179.1 437.2 179.4 443.6 180 447.4C180.8 451.2 181.2 453.6 181.2 454.6C181.2 455.8 181 456.6 180.6 457C180.2 457.4 179.3 457.8 177.9 458.2C152.7 463.8 130.2 466.6 110.4 466.6Z" fill="#0B2470"/>
<path d="M446.883 459.4C447.483 459.4 447.783 460 447.783 461.2C447.783 462.4 447.483 463 446.883 463H398.583C393.983 463 385.383 455 372.783 439C360.383 423 345.283 400.6 327.483 371.8C323.083 372.2 319.683 372.4 317.283 372.4C312.883 372.4 307.683 372.2 301.683 371.8V438.7C301.683 444.9 302.183 449.4 303.183 452.2C304.383 455 306.483 456.9 309.483 457.9C312.683 458.9 317.683 459.4 324.483 459.4C324.883 459.4 325.083 460 325.083 461.2C325.083 462.4 324.883 463 324.483 463C317.883 463 312.783 462.9 309.183 462.7L286.983 462.4L265.383 462.7C261.583 462.9 256.383 463 249.783 463C249.183 463 248.883 462.4 248.883 461.2C248.883 460 249.183 459.4 249.783 459.4C256.583 459.4 261.483 458.9 264.483 457.9C267.683 456.9 269.883 455 271.083 452.2C272.283 449.2 272.883 444.7 272.883 438.7V299.8C272.883 293.8 272.283 289.4 271.083 286.6C270.083 283.8 267.983 281.9 264.783 280.9C261.583 279.7 256.683 279.1 250.083 279.1C249.683 279.1 249.483 278.5 249.483 277.3C249.483 276.1 249.683 275.5 250.083 275.5L265.683 275.8C274.483 276.2 281.583 276.4 286.983 276.4C293.583 276.4 300.783 276.1 308.583 275.5C311.183 275.3 314.283 275.1 317.883 274.9C321.683 274.7 325.883 274.6 330.483 274.6C347.883 274.6 361.283 278 370.683 284.8C380.283 291.6 385.083 301.1 385.083 313.3C385.083 324.3 381.983 334.2 375.783 343C369.783 351.8 361.683 358.8 351.483 364C367.883 388.2 381.583 407.1 392.583 420.7C403.583 434.3 413.283 444.2 421.683 450.4C430.283 456.4 438.683 459.4 446.883 459.4ZM301.683 363.7C306.483 364.5 312.283 364.9 319.083 364.9C332.083 364.9 341.383 361.7 346.983 355.3C352.583 348.7 355.383 338.2 355.383 323.8C355.383 307.6 352.583 296.3 346.983 289.9C341.583 283.5 333.683 280.3 323.283 280.3C315.483 280.3 309.883 281.8 306.483 284.8C303.283 287.6 301.683 292.8 301.683 300.4V363.7Z" fill="#0B2470"/>
<path d="M692.112 459.4C693.112 459.4 693.612 460 693.612 461.2C693.612 462.4 693.112 463 692.112 463C688.312 463 682.212 462.8 673.812 462.4C665.412 462 659.312 461.8 655.512 461.8C650.512 461.8 644.612 462 637.812 462.4C631.012 462.8 625.712 463 621.912 463C621.112 463 620.712 462.4 620.712 461.2C620.712 460 621.112 459.4 621.912 459.4C627.712 459.4 631.912 458.8 634.512 457.6C637.312 456.2 638.712 454 638.712 451C638.712 448 637.012 442.9 633.612 435.7L610.812 389.5H538.212L523.812 421.9C521.212 427.9 519.912 433.3 519.912 438.1C519.912 445.1 522.412 450.4 527.412 454C532.412 457.6 539.412 459.4 548.412 459.4C549.412 459.4 549.912 460 549.912 461.2C549.912 462.4 549.412 463 548.412 463C544.812 463 539.612 462.8 532.812 462.4C525.212 462 518.612 461.8 513.012 461.8C507.612 461.8 501.312 462 494.112 462.4C487.712 462.8 482.412 463 478.212 463C477.212 463 476.712 462.4 476.712 461.2C476.712 460 477.212 459.4 478.212 459.4C483.812 459.4 488.512 458.3 492.312 456.1C496.112 453.9 499.812 450 503.412 444.4C507.012 438.6 511.312 430.1 516.312 418.9L580.812 273.7C581.212 273.1 582.112 272.8 583.512 272.8C584.912 272.8 585.712 273.1 585.912 273.7L659.412 421.9C666.412 436.3 672.212 446.2 676.812 451.6C681.612 456.8 686.712 459.4 692.112 459.4ZM541.512 382H607.212L572.712 312.1L541.512 382Z" fill="#0B2470"/>
<path d="M788.993 437.5C788.993 443.9 789.693 448.6 791.093 451.6C792.693 454.4 795.593 456.4 799.793 457.6C804.193 458.8 810.993 459.4 820.193 459.4C820.793 459.4 821.093 460 821.093 461.2C821.093 462.4 820.793 463 820.193 463C811.993 463 805.593 462.9 800.993 462.7L774.893 462.4L753.293 462.7C749.493 462.9 744.293 463 737.693 463C737.093 463 736.793 462.4 736.793 461.2C736.793 460 737.093 459.4 737.693 459.4C744.493 459.4 749.393 458.9 752.393 457.9C755.393 456.9 757.393 455 758.393 452.2C759.593 449.4 760.193 444.9 760.193 438.7V299.8C760.193 293.8 759.593 289.4 758.393 286.6C757.393 283.8 755.293 281.9 752.093 280.9C749.093 279.7 744.293 279.1 737.693 279.1C737.093 279.1 736.793 278.5 736.793 277.3C736.793 276.1 737.093 275.5 737.693 275.5L753.293 275.8C762.093 276.2 769.193 276.4 774.593 276.4C779.193 276.4 784.793 276.1 791.393 275.5C793.793 275.3 796.993 275.1 800.993 274.9C805.193 274.7 810.093 274.6 815.693 274.6C835.493 274.6 851.093 278.8 862.493 287.2C874.093 295.6 879.893 308.5 879.893 325.9C879.893 338.5 876.593 349.2 869.993 358C863.593 366.8 855.293 373.4 845.093 377.8C835.093 382.2 824.793 384.4 814.193 384.4C808.593 384.4 803.893 383.9 800.093 382.9C799.493 382.9 799.193 382.4 799.193 381.4C799.193 380.8 799.293 380.2 799.493 379.6C799.893 379 800.293 378.8 800.693 379C803.893 379.8 807.393 380.2 811.193 380.2C821.593 380.2 830.393 375.9 837.593 367.3C844.793 358.7 848.393 346.4 848.393 330.4C848.393 314.6 844.693 302.4 837.293 293.8C829.893 285 819.693 280.6 806.693 280.6C801.893 280.6 798.193 281.1 795.593 282.1C793.193 283.1 791.493 285 790.493 287.8C789.493 290.4 788.993 294.6 788.993 300.4V437.5Z" fill="#0B2470"/>
<path d="M1072.73 416.2C1072.73 415.8 1073.13 415.6 1073.93 415.6C1074.53 415.6 1075.03 415.8 1075.43 416.2C1076.03 416.4 1076.33 416.6 1076.33 416.8C1074.33 432 1073.33 445.9 1073.33 458.5C1073.33 460.1 1073.03 461.3 1072.43 462.1C1071.83 462.7 1070.63 463 1068.83 463H938.634C938.034 463 937.734 462.4 937.734 461.2C937.734 460 938.034 459.4 938.634 459.4C945.434 459.4 950.334 458.9 953.334 457.9C956.534 456.9 958.634 455 959.634 452.2C960.834 449.2 961.434 444.7 961.434 438.7V299.8C961.434 293.8 960.834 289.4 959.634 286.6C958.634 283.8 956.534 281.9 953.334 280.9C950.134 279.7 945.234 279.1 938.634 279.1C938.034 279.1 937.734 278.5 937.734 277.3C937.734 276.1 938.034 275.5 938.634 275.5H1063.43C1065.43 275.5 1066.43 276.4 1066.43 278.2L1067.03 317.2C1067.03 317.6 1066.43 317.9 1065.23 318.1C1064.23 318.3 1063.63 318.1 1063.43 317.5C1058.63 294.7 1044.73 283.3 1021.73 283.3H1009.73C1002.53 283.3 997.434 284.6 994.434 287.2C991.434 289.8 989.934 294.2 989.934 300.4V361.6H1018.73C1040.73 361.6 1051.73 354.2 1051.73 339.4C1051.73 338.8 1052.23 338.5 1053.23 338.5C1054.43 338.5 1055.03 338.8 1055.03 339.4L1054.73 365.5L1055.03 379.6C1055.43 386 1055.63 391.2 1055.63 395.2C1055.63 395.6 1055.03 395.8 1053.83 395.8C1052.63 395.8 1052.03 395.6 1052.03 395.2C1052.03 378 1040.83 369.4 1018.43 369.4H989.934V437.5C989.934 444.1 991.134 448.7 993.534 451.3C996.134 453.9 1000.63 455.2 1007.03 455.2H1021.73C1048.53 455.2 1065.53 442.2 1072.73 416.2Z" fill="#0B2470"/>
</svg>
