<svg width="512" height="512" viewBox="0 0 512 512" fill="none" xmlns="http://www.w3.org/2000/svg">
<path d="M179.497 451.96H157.157C151.635 451.96 147.157 456.438 147.157 461.96C147.157 467.482 151.635 471.96 157.157 471.96H179.497C185.019 471.96 189.497 467.482 189.497 461.96C189.497 456.438 185.02 451.96 179.497 451.96Z" fill="#F67D6B"/>
<path d="M322.464 49.426C319.236 49.426 316.03 49.519 312.848 49.702C312.166 22.179 289.565 0 261.883 0H74.771C46.661 0 23.791 22.87 23.791 50.981V461.018C23.791 489.129 46.661 511.999 74.771 511.999H261.882C289.992 511.999 312.862 489.129 312.862 461.018V380.638C316.052 380.822 319.254 380.915 322.463 380.915C413.856 380.915 488.208 306.562 488.208 215.17C488.209 123.778 413.856 49.426 322.464 49.426V49.426ZM261.883 492H74.771C57.688 492 43.791 478.102 43.791 461.019V433.357H292.863V461.019C292.863 478.102 278.966 492 261.883 492ZM292.863 413.356H43.791V50.981C43.791 33.898 57.688 20 74.771 20H261.882C278.965 20 292.862 33.898 292.862 50.981V52.073C215.545 66.07 156.72 133.879 156.72 215.17C156.72 256.363 171.714 295.395 199.089 325.854L187.885 348.974C186.301 352.243 186.614 356.112 188.7 359.083C190.788 362.054 194.319 363.649 197.932 363.28L239.809 358.863C256.276 368.351 274.23 374.892 292.863 378.262V413.356ZM322.464 360.915C295.87 360.915 269.851 353.687 247.217 340.013C245.652 339.068 243.863 338.573 242.046 338.573C241.697 338.573 241.347 338.592 240.997 338.628L213.729 341.504L220.083 328.394C221.922 324.599 221.183 320.058 218.235 317.042C191.464 289.655 176.719 253.477 176.719 215.171C176.719 134.808 242.1 69.427 322.463 69.427C402.827 69.427 468.208 134.808 468.208 215.171C468.209 295.534 402.828 360.915 322.464 360.915V360.915Z" fill="#F67D6B"/>
<path d="M366.316 156.979C365.313 156.979 364.314 157.019 363.321 157.1C354.802 143.038 339.292 134.049 322.464 134.049C305.636 134.049 290.126 143.038 281.608 157.1C280.615 157.019 279.616 156.979 278.613 156.979C258.473 156.979 242.089 173.322 242.089 193.411C242.089 209.371 252.432 222.967 266.782 227.882L269.925 268.803C270.325 274.014 274.67 278.037 279.896 278.037H365.034C370.26 278.037 374.604 274.014 375.005 268.804L378.152 227.881C392.5 222.965 402.841 209.371 402.841 193.412C402.84 173.322 386.455 156.979 366.316 156.979V156.979ZM289.157 258.037L286.918 228.89C291.448 227.835 295.734 225.926 299.544 223.267C306.528 227.08 314.429 229.125 322.464 229.125C330.5 229.125 338.401 227.08 345.385 223.267C349.196 225.926 353.483 227.836 358.014 228.891L355.772 258.037H289.157ZM366.316 209.844C361.508 209.844 356.947 207.766 353.8 204.142C351.826 201.869 349.045 200.698 346.244 200.698C344.025 200.698 341.795 201.432 339.943 202.936C334.959 206.986 328.914 209.126 322.463 209.126C316.013 209.126 309.968 206.985 304.984 202.936C300.796 199.534 294.663 200.068 291.128 204.142C287.982 207.766 283.42 209.844 278.612 209.844C269.501 209.844 262.088 202.472 262.088 193.411C262.088 184.35 269.501 176.979 278.612 176.979C280.451 176.979 282.254 177.275 283.969 177.859C289.075 179.594 294.643 176.966 296.546 171.918C300.573 161.23 310.988 154.05 322.463 154.05C333.938 154.05 344.354 161.231 348.381 171.918C350.283 176.967 355.846 179.598 360.958 177.859C362.674 177.275 364.477 176.979 366.315 176.979C375.426 176.979 382.838 184.35 382.838 193.411C382.838 202.472 375.428 209.844 366.316 209.844V209.844Z" fill="#F67D6B"/>
</svg>
