<svg width="512" height="512" viewBox="0 0 512 512" fill="none" xmlns="http://www.w3.org/2000/svg">
<path d="M502 394.757H403.613C434.672 373.741 455.128 338.186 455.128 297.943V190.093C455.128 184.571 450.65 180.093 445.128 180.093H433.486C436.929 161.487 433.409 143.533 433.22 142.595C432.423 138.651 429.34 135.567 425.395 134.771C423.602 134.41 381.223 126.17 358.661 148.734C356.533 150.862 354.618 153.213 352.917 155.783C351.216 153.214 349.302 150.862 347.174 148.734C324.609 126.171 282.23 134.409 280.439 134.771C276.494 135.567 273.411 138.651 272.614 142.595C272.425 143.533 268.905 161.487 272.348 180.093H197.865L149.832 72.965C138.775 48.308 109.724 37.241 85.062 48.296C60.405 59.353 49.338 88.408 60.393 113.066C65.748 125.011 75.435 134.156 87.668 138.815C97.565 142.584 108.166 143.053 118.179 140.26L136.038 180.093H66.872C61.35 180.093 56.872 184.571 56.872 190.093V297.943C56.872 338.186 77.327 373.741 108.387 394.757H10C4.478 394.757 0 399.235 0 404.757V417.155C0 445.186 22.805 467.991 50.836 467.991H461.164C489.195 467.991 512 445.186 512 417.155V404.757C512 399.234 507.522 394.757 502 394.757V394.757ZM372.802 162.876C382.894 152.783 402.562 152.265 414.569 153.412C415.244 160.556 415.389 170.867 413.024 180.093H364.396C365.744 173.817 368.25 167.427 372.802 162.876V162.876ZM291.286 153.466C301.957 152.459 322.342 152.188 333.031 162.876C337.582 167.427 340.088 173.817 341.436 180.093H292.795C290.313 170.506 290.649 160.103 291.286 153.466V153.466ZM132.529 123.379C131.397 120.855 129.271 118.912 126.655 118.013C124.042 117.114 121.168 117.339 118.724 118.633C118.148 118.938 117.561 119.225 116.98 119.485C109.912 122.656 102.029 122.882 94.788 120.125C87.547 117.368 81.813 111.955 78.643 104.885C72.1 90.2881 78.65 73.09 93.245 66.546C107.84 60.002 125.038 66.5531 131.582 81.1481L175.945 180.093H157.957L132.529 123.379ZM435.128 200.093V253.809H76.872V200.093H435.128ZM76.872 297.942V273.808H435.128V297.942C435.128 351.326 391.696 394.756 338.313 394.756H173.688C120.304 394.757 76.872 351.326 76.872 297.942V297.942ZM492 417.155C492 434.158 478.167 447.991 461.164 447.991H50.836C33.833 447.991 20 434.158 20 417.155V414.757H492V417.155Z" fill="#F67D6B"/>
</svg>
