<svg xmlns="http://www.w3.org/2000/svg" xmlns:xlink="http://www.w3.org/1999/xlink" version="1.1" x="0px" y="0px" viewBox="0 0 80 80" style="enable-background:new 0 0 80 80;max-width:100%" xml:space="preserve" height="100%"><g style="" fill="currentColor"><path d="M36,19.62H13c-0.21,0-0.38,0.17-0.38,0.38v23c0,0.21,0.17,0.38,0.38,0.38h13.62c-0.13,5.88-3.4,11.23-8.6,14.03l-4.2,2.26   c-0.15,0.08-0.23,0.25-0.18,0.42c0.04,0.17,0.19,0.29,0.36,0.29h5c9.58,0,17.38-7.8,17.38-17.38V20   C36.38,19.79,36.21,19.62,36,19.62z" style="" fill="rgb(246,125,107"></path><path d="M67,19.62H44c-0.21,0-0.38,0.17-0.38,0.38v23c0,0.21,0.17,0.38,0.38,0.38h13.62c-0.13,5.88-3.4,11.23-8.6,14.03l-4.2,2.26   c-0.15,0.08-0.23,0.25-0.18,0.42c0.04,0.17,0.19,0.29,0.36,0.29h5c9.58,0,17.38-7.8,17.38-17.38V20   C67.38,19.79,67.21,19.62,67,19.62z" style="" fill="rgb(246,125,107"></path></g></svg>