<svg width="512" height="512" viewBox="0 0 512 512" fill="none" xmlns="http://www.w3.org/2000/svg">
<path d="M502 102.93H347.031L292.004 61.715C293.08 58.218 293.659 54.506 293.659 50.661C293.659 29.895 276.765 13.002 256 13.002C235.235 13.002 218.341 29.896 218.341 50.661C218.341 54.506 218.921 58.218 219.997 61.715L164.969 102.93H10C4.478 102.93 0 107.408 0 112.93V205.675C0 211.197 4.478 215.675 10 215.675H80.484V312.699C80.484 318.221 84.962 322.699 90.484 322.699H111.958V372.737H103.632C85.521 372.737 70.785 387.472 70.785 405.584V483.272C70.785 488.794 75.263 493.272 80.785 493.272H163.131C168.653 493.272 173.131 488.794 173.131 483.272V405.584C173.131 387.473 158.396 372.737 140.283 372.737H131.958V322.699H153.432C158.954 322.699 163.432 318.221 163.432 312.699V215.675H213.434V267.968C213.434 273.49 217.912 277.968 223.434 277.968H223.787V488.998C223.787 494.52 228.265 498.998 233.787 498.998C257.405 498.998 276.568 484.69 289.205 457.623C298.522 437.665 303.866 411.251 303.866 385.154V328.521C303.866 311.905 292.681 297.852 277.445 293.496V277.968H280.177C285.699 277.968 290.177 273.49 290.177 267.968V215.675H374.533V288.35C374.533 293.872 379.011 298.35 384.533 298.35H401.476V312.834C367.002 318.804 342.915 355.613 342.915 404.731C342.915 458.473 371.749 497.479 411.476 497.479C451.204 497.479 480.038 458.473 480.038 404.731C480.038 355.612 455.952 318.804 421.476 312.834V298.35H438.42C443.942 298.35 448.42 293.872 448.42 288.35V215.675H502C507.522 215.675 512 211.197 512 205.675V112.93C512 107.407 507.522 102.93 502 102.93V102.93ZM153.131 405.584V473.272H90.785V405.584C90.785 398.5 96.548 392.737 103.632 392.737H140.283C147.367 392.737 153.131 398.5 153.131 405.584ZM411.477 477.296C407.179 474.349 397.017 453.618 397.017 404.732C397.017 355.846 407.179 335.115 411.477 332.168C415.775 335.115 425.937 355.846 425.937 404.732C425.937 453.618 415.774 474.349 411.477 477.296V477.296ZM362.916 404.731C362.916 378.125 371.052 356.123 384.13 343.513C379.116 360.836 377.017 383.14 377.017 404.731C377.017 426.322 379.116 448.625 384.13 465.949C371.052 453.339 362.916 431.338 362.916 404.731ZM460.038 404.731C460.038 431.338 451.901 453.34 438.823 465.95C443.837 448.626 445.936 426.323 445.936 404.731C445.936 383.139 443.837 360.836 438.823 343.512C451.901 356.123 460.038 378.124 460.038 404.731ZM256 33.002C265.737 33.002 273.659 40.924 273.659 50.661C273.659 60.399 265.737 68.321 256 68.321C246.263 68.321 238.341 60.399 238.341 50.661C238.341 40.924 246.263 33.002 256 33.002V33.002ZM230.793 78.617C237.472 84.646 246.315 88.321 256 88.321C265.685 88.321 274.528 84.645 281.207 78.616L313.668 102.929H198.332L230.793 78.617ZM143.432 302.699H100.485V176.454C100.485 164.613 110.118 154.98 121.959 154.98C133.8 154.98 143.433 164.613 143.433 176.454V302.699H143.432ZM270.177 257.968H233.434V173.353C233.434 163.222 241.675 154.981 251.805 154.981C261.936 154.981 270.177 163.222 270.177 173.353V257.968ZM267.444 312.101C276.499 312.101 283.865 319.467 283.865 328.522V385.155C283.865 408.089 279.086 432.017 271.081 449.164C263.915 464.513 254.764 473.995 243.786 477.481V277.968H257.444V302.101C257.444 307.623 261.922 312.101 267.444 312.101V312.101ZM428.421 278.35H394.533V171.924C394.533 162.581 402.134 154.981 411.476 154.981C420.818 154.981 428.42 162.582 428.42 171.924V278.35H428.421ZM492 195.675H448.421V171.924C448.421 151.553 431.848 134.981 411.477 134.981C391.106 134.981 374.534 151.553 374.534 171.924V195.675H290.178V173.353C290.178 152.195 272.964 134.981 251.806 134.981C230.648 134.981 213.435 152.195 213.435 173.353V195.675H163.433V176.454C163.433 153.586 144.828 134.98 121.959 134.98C99.09 134.98 80.485 153.585 80.485 176.454V195.675H20V122.93H492V195.675Z" fill="#F67D6B"/>
</svg>
