<svg width="512" height="512" viewBox="0 0 512 512" fill="none" xmlns="http://www.w3.org/2000/svg">
<g clip-path="url(#clip0_8_275)">
<path d="M487.401 170.176C487.401 118.79 445.482 76.985 393.958 76.985C388.34 76.985 382.756 77.483 377.271 78.47C367.562 56.823 352.3 38.251 332.741 24.392C310.222 8.435 283.686 0 256 0C203.611 0 156.011 31.171 134.734 78.47C129.248 77.483 123.662 76.984 118.042 76.984C66.5181 76.984 24.5991 118.789 24.5991 170.175C24.5991 214.114 55.2481 251.047 96.3441 260.83L122.443 503.071C122.99 508.15 127.277 512 132.385 512H379.615C384.723 512 389.011 508.15 389.557 503.071L415.647 260.833C456.748 251.053 487.401 214.117 487.401 170.176V170.176ZM141.365 492L133.218 416.382H378.779L370.635 492H141.365ZM380.933 396.382H131.063L116.731 263.357C117.167 263.363 117.604 263.366 118.041 263.366C140.569 263.366 161.783 255.52 178.666 241.105C201.113 257.165 228.25 265.924 255.999 265.924C283.748 265.924 310.885 257.164 333.332 241.105C350.215 255.521 371.429 263.366 393.957 263.366C394.392 263.366 394.826 263.363 395.259 263.357L380.933 396.382ZM393.958 243.367C373.874 243.367 355.122 235.441 341.156 221.048C337.531 217.313 331.649 216.982 327.629 220.287C307.519 236.82 282.08 245.925 256 245.925C229.92 245.925 204.481 236.82 184.371 220.287C180.35 216.98 174.466 217.312 170.844 221.048C156.878 235.441 138.126 243.367 118.042 243.367C77.5451 243.367 44.5991 210.534 44.5991 170.176C44.5991 129.818 77.5451 96.985 118.042 96.985C121.331 96.985 124.602 97.202 127.837 97.631C124.685 109.089 123.092 120.93 123.092 132.963C123.092 138.486 127.57 142.963 133.092 142.963C138.614 142.963 143.092 138.486 143.092 132.963C143.092 119.59 145.403 106.505 149.959 94.073C150.022 93.9 150.086 93.727 150.15 93.555C150.151 93.553 150.151 93.551 150.152 93.55C166.533 49.533 208.998 20 256 20C303.016 20 345.577 49.622 361.908 93.711C366.553 106.252 368.908 119.458 368.908 132.962C368.908 138.485 373.386 142.962 378.908 142.962C384.43 142.962 388.908 138.485 388.908 132.962C388.908 120.926 387.315 109.087 384.163 97.63C387.397 97.201 390.669 96.984 393.958 96.984C434.455 96.984 467.401 129.817 467.401 170.175C467.401 210.533 434.455 243.367 393.958 243.367Z" fill="#F67D6B"/>
<path d="M186.622 295.893C186.309 290.379 181.595 286.162 176.072 286.475C170.557 286.788 166.341 291.511 166.653 297.025L170.752 369.358C171.054 374.679 175.464 378.793 180.728 378.793C180.918 378.793 181.11 378.788 181.302 378.776C186.817 378.463 191.033 373.74 190.721 368.226L186.622 295.893Z" fill="#F67D6B"/>
<path d="M335.928 286.475C330.422 286.162 325.691 290.38 325.378 295.893L321.279 368.226C320.966 373.74 325.183 378.463 330.698 378.776C330.89 378.787 331.082 378.793 331.272 378.793C336.536 378.793 340.946 374.679 341.248 369.358L345.347 297.025C345.659 291.511 341.442 286.788 335.928 286.475V286.475Z" fill="#F67D6B"/>
<path d="M256 281.945C250.478 281.945 246 286.422 246 291.945V366.587C246 372.11 250.478 376.587 256 376.587C261.522 376.587 266 372.11 266 366.587V291.945C266 286.422 261.522 281.945 256 281.945Z" fill="#F67D6B"/>
</g>
<defs>
<clipPath id="clip0_8_275">
<rect width="512" height="512" fill="white"/>
</clipPath>
</defs>
</svg>
